# xmcd CD database file
#
# Track frame offsets:
#	150
#	17482
#	34818
#	53118
#	72470
#	96922
#	119544
#	141474
#	167397
#	189003
#	212998
#	229858
#	245058
#	266889
#	292988
#	315426
#
# Disc length: 4431 seconds
#
# Revision: 0
# Processed by: cddbd v1.5.1PL0 Copyright (c) Steve Scherf et al.
# Submitted via: CDex 1.51
#
DISCID=eb114d10
DTITLE=Rolando Sanchez and Salsa Hawaii - Ten Years of Salsa
DYEAR=1900
DGENRE=Salsa
TTITLE0=Bailando Merengue
TTITLE1=Salsa de City
TTITLE2=Jammin' In Paradise
TTITLE3=Vengo A Buscarte
TTITLE4=Ahora
TTITLE5=She's The Lady
TTITLE6=Nena
TTITLE7=Sitting On The Sand
TTITLE8=Cielito Lindo
TTITLE9=Si No Tiene Swing
TTITLE10=Usted
TTITLE11=Dream Song
TTITLE12=Mambo Para Ti
TTITLE13=Lluvia
TTITLE14=Y Por Tanto
TTITLE15=Cuando Calienta El Sol
EXTD=
EXTT0=
EXTT1=
EXTT2=
EXTT3=
EXTT4=
EXTT5=
EXTT6=
EXTT7=
EXTT8=
EXTT9=
EXTT10=
EXTT11=
EXTT12=
EXTT13=
EXTT14=
EXTT15=
PLAYORDER=
